<svg width="439" height="364" viewBox="0 0 439 364" fill="none" xmlns="http://www.w3.org/2000/svg">
<path d="M197.05 326.34C198.85 328.73 202.52 332.29 206.85 335.69C211.16 339.12 216.14 342.35 220.11 344.72C229.06 350.08 238.69 354.34 248.67 357.45L249.05 357.51C249.05 357.51 248.94 357.53 248.91 357.52L249.14 357.59L249.6 357.72L250.52 357.98L252.36 358.47C253.58 358.79 254.81 359.09 256.04 359.38C258.5 359.95 260.97 360.47 263.45 360.94C270.42 362.24 277.48 363.11 284.58 363.37C288.13 363.5 291.69 363.37 295.24 363.2L300.54 362.72C302.3 362.54 304.05 362.23 305.81 362C312.8 360.87 319.73 359.33 326.45 357.1L328.98 356.31L331.47 355.39L336.44 353.54L341.3 351.43L343.73 350.37L346.1 349.18C357.55 343.52 368.29 336.37 377.89 327.89C378.67 327.27 379.39 326.57 380.1 325.88L382.26 323.82C383.67 322.43 385.19 321.14 386.48 319.63C387.82 318.17 389.16 316.72 390.49 315.27L391.49 314.18L392.42 313.03L394.27 310.73C399.33 304.69 403.65 298.08 407.47 291.15C414.21 278.97 418.7 265.75 421.22 252.23C423.77 238.7 424.16 224.76 422.49 210.96C421.65 203.93 420.39 196.95 418.56 190.11C416.71 183.28 414.41 176.59 411.6 170.09C410.89 168.47 410.09 166.89 409.33 165.29L408.18 162.9L406.9 160.58L404.32 155.94L401.45 151.47L400.01 149.23C399.5 148.51 398.96 147.8 398.44 147.09L395.27 142.82C394.19 141.42 392.99 140.11 391.85 138.75L390.12 136.73L389.25 135.72C388.95 135.39 388.63 135.09 388.32 134.77C378.47 124.3 366.95 115.85 354.47 109.48L349.71 107.26L347.33 106.16L344.89 105.19L340 103.28L335.01 101.63C328.32 99.5601 321.49 97.8401 314.5 96.7401C300.38 94.4501 286.05 93.9401 271.91 95.4501C257.78 96.9501 243.82 100.38 230.66 105.97C217.47 111.57 205.38 119.41 195 129.1C193.67 130.28 192.46 131.58 191.18 132.81C189.92 134.06 188.79 135.43 187.59 136.74L184.04 140.72L180.8 144.96C176.41 150.58 172.78 156.76 169.39 163.08C165.83 170.25 162.85 177.62 160.51 185.15C158.22 192.7 156.57 200.39 155.5 208.16C154.41 215.93 153.99 223.79 154.12 231.66C154.26 239.54 155.05 247.45 156.54 255.3C159.13 269.11 164.1 282.59 171.02 294.83C177.94 307.08 186.88 318.05 197.11 327.03C198.43 328.18 199.73 329.21 200.87 330.11C202.02 331 203.08 331.68 203.88 332.19C205.5 333.19 206.22 333.33 205.39 332.13C205 331.57 204.06 330.65 202.96 329.65C201.86 328.62 200.65 327.49 199.64 326.54C198.26 325.31 196.97 323.97 195.61 322.67C194.3 321.32 192.98 319.94 191.67 318.51L188.96 315.44L186.33 312.29C181.83 306.8 177.76 300.95 174.21 294.79C171.69 290.46 169.46 285.96 167.43 281.38C165.4 276.79 163.73 272.06 162.21 267.28C159.28 257.69 157.48 247.75 156.81 237.75C155.42 216.2 158.76 194.46 166.9 174.73C170.96 164.87 176.27 155.55 182.68 147.08L185.12 143.93C185.53 143.41 185.92 142.87 186.35 142.36L187.68 140.88C189.47 138.92 191.21 136.91 193.04 134.99C196.75 131.19 200.75 127.68 204.92 124.41C213.28 117.87 222.5 112.44 232.28 108.25C242.05 104.04 252.35 101.08 262.86 99.2001C283.89 95.4801 305.82 96.4701 326.72 101.95C337.34 104.85 347.64 108.95 357.22 114.34C366.81 119.71 375.66 126.38 383.49 134.1C384.44 135.04 385.4 136 386.37 136.96C386.87 137.43 387.32 137.94 387.77 138.46L389.12 140.01C390.9 142.1 392.77 144.12 394.3 146.32C394.78 146.96 395.67 148.14 396.87 149.75C397.5 150.54 398.11 151.5 398.79 152.55C399.48 153.6 400.22 154.74 401.02 155.97C401.86 157.17 402.6 158.54 403.4 159.96C404.2 161.38 405.07 162.85 405.9 164.41C407.44 167.58 409.17 170.92 410.56 174.48C413.5 181.54 415.88 189.13 417.41 195.95C418.94 202.77 419.71 208.77 420.13 212.6C420.97 221.7 421.13 229.93 420.2 240.01L421.64 240.16L420.2 240.02C419.49 247.69 418.09 255.37 415.88 263.37C413.21 273.06 409.33 282.39 404.55 291.19C403.21 293.83 401.56 296.3 400.05 298.84C399.28 300.1 398.39 301.29 397.57 302.52C396.71 303.72 395.94 304.99 395.01 306.14C393.17 308.46 391.38 310.82 389.51 313.1C387.52 315.29 385.55 317.5 383.54 319.66C377.14 326.15 370.04 332.03 362.56 337.1C352.17 344.03 340.74 349.61 328.74 353.69C322.7 355.61 316.58 357.37 310.31 358.47C307.2 359.15 304.03 359.46 300.89 359.93C297.72 360.18 294.56 360.54 291.38 360.56C285.04 360.78 278.67 360.32 272.35 359.48C266.03 358.65 259.76 357.41 253.6 355.85L251.53 355.3L250.5 355.01L249.99 354.86L249.74 354.79C249.74 354.79 249.54 354.73 249.43 354.71C249.3 354.68 249.16 354.66 249.03 354.65L249.5 354.72C244.82 353.26 240.22 351.56 235.72 349.6C232.83 348.34 229.98 346.97 227.2 345.51C225.81 344.78 224.43 344.03 223.07 343.24L222.05 342.65L221.73 342.46L221.18 342.14C217.84 340.19 213.64 337.39 209.79 334.53C205.93 331.69 202.42 328.78 200.1 327.03C198.2 325.6 196.83 324.73 196.43 324.82C196.16 324.88 196.32 325.35 197.05 326.33V326.34Z" fill="#32E6E2"/>
<path d="M34.0092 213.77C33.9992 215.1 35.8392 216.42 36.8992 217.38C38.6692 219.01 40.5292 220.54 42.4292 222.01C45.9192 224.7 49.6293 227.09 53.5193 229.12C55.3093 230.04 57.0592 230.94 58.8092 231.84C60.9992 233 63.0493 234.3 65.2193 235.48C68.4193 237.21 71.8292 238.27 75.3092 239.2L75.7193 239.26C75.6693 239.27 75.6092 239.27 75.5592 239.26C75.5392 239.26 75.4892 239.24 75.5092 239.25L75.5693 239.27L75.8293 239.33L76.3392 239.46L77.3593 239.71C81.6393 240.71 85.8292 241.93 90.1492 242.75C94.5292 243.56 98.8292 243.62 103.229 243.52C107.679 243.4 112.039 243.6 116.499 243.46C120.959 243.34 125.289 242.61 129.589 241.39C134.379 240.02 138.919 238.52 143.599 236.84C147.719 235.38 151.769 233.39 154.949 230.48C155.769 229.73 156.169 228.79 155.369 228.35C154.999 228.14 154.459 228.43 154.059 228.59C153.569 228.87 153.059 229.15 152.519 229.41C152.139 229.6 151.769 229.8 151.409 230.01C150.469 230.56 149.509 231.09 148.539 231.6C145.819 233.06 143.009 234.35 140.139 235.48C133.949 237.91 127.529 239.41 121.049 240.26C114.569 241.1 107.979 241.26 101.349 240.99C97.9693 240.74 94.5893 240.36 91.2093 239.96C90.3893 239.87 89.5293 239.73 88.7093 239.56C88.2293 239.46 86.0593 239.11 83.7393 238.65C81.4193 238.19 78.9492 237.6 77.8092 237.26C77.5092 237.17 77.2192 237.08 76.9292 237L76.4993 236.87L76.2892 236.8L76.0493 236.73C75.9393 236.7 75.8193 236.69 75.7093 236.67L76.0793 236.73C75.3593 236.5 74.6192 236.26 73.7892 236.02C72.6492 235.69 71.4992 235.33 70.3092 234.87C68.8592 234.31 67.4393 233.71 66.0193 233.08C64.3493 232.33 62.7092 231.53 61.0892 230.69C59.8392 230.05 58.5793 229.39 57.3793 228.68C54.0593 226.73 50.7693 224.59 47.5793 222.3C45.9893 221.15 44.4193 219.97 42.8893 218.76C42.1193 218.15 41.3593 217.54 40.6093 216.92L39.4893 215.98L38.9393 215.51L38.7993 215.39L38.7592 215.35L38.6792 215.29C37.7292 214.56 36.4193 213.15 35.3893 212.94C34.9593 212.86 34.5493 212.94 34.2793 213.16C34.1093 213.31 33.9993 213.52 33.9893 213.79L34.0092 213.77Z" fill="#32E6E2"/>
<path d="M211.06 117.81C211.31 116.34 211.05 113.9 210.51 111.32C210.25 110.03 209.93 108.7 209.57 107.43C209.24 106.15 208.87 104.95 208.56 103.89C206.48 96.77 203.59 89.84 199.96 83.35C196.66 77.38 192.71 71.78 188.2 66.69C185.99 64.1 183.48 61.8 181.07 59.41C179.82 58.26 178.49 57.21 177.2 56.1L175.25 54.47L173.19 52.98C171.94 52.09 170.72 51.17 169.45 50.31L165.55 47.87C164.27 47.02 162.91 46.31 161.57 45.57L159.56 44.46L158.55 43.9L157.51 43.4C150.69 39.93 143.75 37.06 136.45 34.95C130.05 33.08 123.5 31.98 116.93 31.47C110.35 30.97 103.73 31.01 97.0897 31.66C83.5797 32.88 70.2397 36.03 57.8597 41.75C51.5897 44.64 45.9097 48.37 40.5597 52.44L36.7197 55.71C36.0897 56.27 35.4197 56.77 34.8297 57.37L33.0397 59.15C31.8597 60.35 30.6397 61.51 29.4797 62.74C28.3797 64.02 27.2797 65.31 26.1697 66.6C25.6197 67.26 25.0297 67.88 24.5097 68.56L22.9697 70.62C21.9597 72 20.8697 73.32 19.9197 74.74L17.0997 79.01C16.6097 79.71 16.1797 80.45 15.7597 81.19L14.4797 83.41C11.1297 89.34 8.19968 95.54 6.02968 102.05C1.61968 115.06 -0.120317 128.65 0.679683 142.37C1.60968 157.68 5.40969 172.26 12.1597 186.03C18.0397 198.14 26.6997 209.24 37.0597 217.22C39.7297 219.26 42.1297 220.44 41.5797 218.97C41.3297 218.27 39.9097 217.06 38.9597 216.14C37.6597 214.95 36.3297 213.76 35.0397 212.43L33.6497 211.05L32.2997 209.64C29.9197 207.23 27.7097 204.66 25.5797 202.02C19.5897 194.56 14.6697 186.24 10.9897 177.41C9.02968 172.65 7.37968 167.78 6.16968 162.81C4.94968 157.84 4.11968 152.8 3.62968 147.73C2.70968 137.6 3.20968 127.34 4.98968 117.37C5.83968 112.37 7.16968 107.46 8.69968 102.63C9.52968 100.23 10.3197 97.82 11.3397 95.5C11.8397 94.33 12.2697 93.14 12.8197 91.99L14.4797 88.56L15.3097 86.85L16.2497 85.19L18.1297 81.87C19.4397 79.69 20.8997 77.6 22.2897 75.46C23.8597 73.45 25.3597 71.37 26.9897 69.4L29.5497 66.53L30.8297 65.09L31.4697 64.37L32.1597 63.7C39.5497 56.25 48.1497 50.07 57.4697 45.25C59.6997 44 62.1997 43 64.5497 41.99C65.9497 41.41 72.2397 38.9 79.3397 37.15C86.4197 35.32 94.2297 34.34 97.8997 34.12C102.25 33.82 106.17 33.76 111 33.87C114.68 33.93 118.38 34.25 122.32 34.75C127.08 35.38 131.77 36.4 136.41 37.59C141.87 39.08 147.18 41.02 152.36 43.28C154.31 44.25 156.31 45.13 158.22 46.15C159.17 46.68 160.12 47.21 161.06 47.75C162 48.29 162.96 48.78 163.85 49.4C165.09 50.22 166.34 51.04 167.58 51.86C168.22 52.25 168.81 52.7 169.4 53.16L171.19 54.52C173.64 56.26 175.84 58.32 178.12 60.29L178.97 61.04L179.76 61.85L181.35 63.46C182.4 64.55 183.51 65.58 184.51 66.72C186.53 68.98 188.47 71.31 190.28 73.74C193.91 78.6 197.08 83.8 199.75 89.22C200.44 90.56 201.03 91.96 201.67 93.32C202.24 94.71 202.85 96.1 203.38 97.5C203.91 98.91 204.45 100.31 204.9 101.74C205.13 102.45 205.39 103.16 205.6 103.88L205.76 104.42L205.81 104.59L205.9 104.88C207.07 108.39 208.23 114.2 209.23 116.83C209.65 117.9 210.12 118.6 210.47 118.65C210.71 118.69 210.9 118.44 210.99 117.84L211.06 117.81Z" fill="#32E6E2"/>
<path d="M159.849 132.06C160.639 130.79 159.789 128.13 159.349 126.43C158.639 123.56 157.639 120.75 156.419 118.06C154.189 113.11 151.099 108.55 147.309 104.72C146.459 103.85 145.529 103.05 144.659 102.2C143.779 101.36 142.809 100.62 141.909 99.8C141.359 99.28 140.739 98.84 140.169 98.35C139.579 97.88 139.029 97.36 138.429 96.91C137.219 96.02 136.069 95.04 134.769 94.24C130.299 91.27 125.209 89.69 120.019 88.66C114.739 87.58 109.389 86.75 103.969 86.82C98.4692 86.9 93.2892 88.22 88.2392 90.09C83.1292 91.96 78.1692 94.11 73.5292 97.02C68.8892 99.95 64.9592 103.79 61.8292 108.31C61.3692 108.92 60.9592 109.57 60.5692 110.22C60.1692 110.86 59.7592 111.5 59.3592 112.14C58.9892 112.8 58.6292 113.46 58.2692 114.11C57.8992 114.76 57.5292 115.41 57.2192 116.1C55.8392 118.76 54.7292 121.55 53.6692 124.41C51.8892 129.46 50.8892 134.97 51.5892 140.18C51.7692 141.52 52.3492 142.54 53.1492 142.01C53.5192 141.76 53.5692 141.03 53.6592 140.52C53.6792 139.83 53.7592 139.14 53.8292 138.42C53.8992 137.92 53.9492 137.41 53.9792 136.9C54.0892 135.58 54.2292 134.27 54.4292 132.96C54.9592 129.27 55.8492 125.63 57.1492 122.13C59.9292 114.6 64.6292 107.99 70.5192 102.79C76.4492 97.63 83.5492 93.9 91.2692 91.76C95.2292 90.76 99.2692 90.1 103.359 89.79C104.349 89.71 105.399 89.68 106.399 89.7C106.989 89.72 109.629 89.7 112.459 89.98C115.299 90.24 118.319 90.77 119.699 91.15C120.529 91.35 121.309 91.55 122.099 91.8C122.889 92.04 123.719 92.25 124.609 92.54C125.289 92.76 125.989 92.95 126.679 93.2C127.359 93.46 128.059 93.73 128.769 94.03C130.469 94.8 132.149 95.62 133.739 96.58C134.709 97.1 135.599 97.74 136.519 98.35C137.449 98.93 138.289 99.64 139.169 100.3L140.169 101.07L141.119 101.91C141.739 102.48 142.399 103.01 142.979 103.61C146.269 106.86 149.139 110.63 151.489 114.7C152.659 116.74 153.679 118.86 154.569 121.04C155.019 122.12 155.429 123.22 155.789 124.33C155.989 124.88 156.149 125.44 156.319 126C156.399 126.28 156.499 126.56 156.569 126.84L156.629 127.05L156.649 127.12L156.689 127.23C157.149 128.6 157.479 130.87 158.209 131.84C158.509 132.23 158.899 132.47 159.249 132.46C159.479 132.46 159.689 132.34 159.849 132.08V132.06Z" fill="#32E6E2"/>
<path d="M209.86 312.72C211.36 314.83 214.51 317.9 218.23 320.84C221.94 323.8 226.23 326.57 229.64 328.61C237.35 333.23 245.64 336.9 254.22 339.57L254.6 339.63C254.54 339.65 254.47 339.65 254.43 339.63L254.63 339.69L255.03 339.81L255.82 340.03L257.4 340.45C258.45 340.73 259.51 340.98 260.57 341.24C262.69 341.73 264.82 342.18 266.95 342.58C272.95 343.7 279.03 344.45 285.14 344.67C288.2 344.78 291.26 344.67 294.32 344.52L298.88 344.11C300.4 343.96 301.9 343.69 303.41 343.48C309.43 342.5 315.39 341.18 321.17 339.25L323.35 338.57L325.49 337.78L329.76 336.18L333.94 334.36L336.03 333.44L338.07 332.41C347.92 327.53 357.15 321.36 365.42 314.08C366.09 313.54 366.71 312.94 367.32 312.35L369.18 310.58C370.4 309.38 371.7 308.27 372.82 306.98C373.97 305.73 375.13 304.48 376.28 303.23L377.14 302.3L377.94 301.31L379.53 299.33C383.89 294.14 387.63 288.46 390.93 282.5C396.76 272.02 400.63 260.64 402.79 249C404.98 237.35 405.3 225.35 403.86 213.46C403.13 207.41 402.04 201.4 400.48 195.51C398.89 189.63 396.91 183.87 394.5 178.27C393.89 176.88 393.2 175.52 392.55 174.14L391.57 172.08L390.47 170.08L388.25 166.08L385.78 162.23L384.54 160.3C384.1 159.68 383.64 159.07 383.19 158.45L380.47 154.77C379.54 153.56 378.51 152.43 377.53 151.26L376.04 149.52C375.55 148.93 375.05 148.36 374.5 147.83C366.02 138.8 356.08 131.54 345.34 126.06C334.51 120.72 322.93 117.09 310.91 115.14C298.76 113.2 286.43 112.73 274.26 114.05C262.1 115.33 250.08 118.26 238.76 123.09C235.88 124.2 233.18 125.69 230.41 127.03C229.03 127.7 227.74 128.55 226.41 129.3C225.1 130.1 223.74 130.81 222.48 131.68C217.39 135.09 212.47 138.76 208.06 142.99C199.12 151.33 191.64 161.23 185.97 172.22C182.91 178.4 180.36 184.74 178.34 191.23C176.37 197.73 174.96 204.35 174.03 211.04C173.09 217.72 172.73 224.49 172.83 231.26C172.94 238.05 173.62 244.86 174.9 251.62C177.12 263.52 181.38 275.13 187.35 285.67C193.32 296.21 201.04 305.65 209.88 313.33C211.02 314.31 212.14 315.19 213.13 315.96C214.13 316.71 215.05 317.29 215.75 317.71C217.17 318.54 217.81 318.63 217.14 317.55C216.82 317.04 216.02 316.25 215.08 315.38C214.13 314.48 213.1 313.51 212.24 312.7C211.06 311.64 209.95 310.49 208.78 309.37C207.66 308.21 206.53 307.02 205.41 305.79L203.08 303.15L200.83 300.45C196.97 295.74 193.47 290.72 190.42 285.43C188.26 281.71 186.34 277.85 184.6 273.92C182.86 269.98 181.42 265.92 180.12 261.82C177.61 253.59 176.06 245.06 175.48 236.47C174.28 217.97 177.16 199.3 184.15 182.37C187.64 173.91 192.2 165.91 197.7 158.64C200.39 154.95 203.5 151.6 206.6 148.28L211.56 143.58C212.36 142.76 213.3 142.11 214.17 141.38L216.82 139.23C224.01 133.64 231.92 128.99 240.29 125.39C248.67 121.78 257.5 119.21 266.51 117.59C284.56 114.41 303.38 115.25 321.32 119.94C330.43 122.43 339.27 125.95 347.49 130.57C355.72 135.18 363.32 140.9 370.04 147.51C370.86 148.32 371.68 149.14 372.52 149.96C373.37 150.76 374.08 151.71 374.87 152.58C376.4 154.37 378 156.1 379.32 158C379.73 158.55 380.49 159.56 381.53 160.95C382.07 161.63 382.6 162.45 383.18 163.35C383.77 164.25 384.41 165.23 385.1 166.28C385.82 167.31 386.46 168.48 387.15 169.7C387.83 170.92 388.58 172.18 389.29 173.52C390.61 176.24 392.1 179.1 393.3 182.16C395.83 188.22 397.87 194.74 399.19 200.59C400.5 206.45 401.17 211.6 401.53 214.88C402.25 222.69 402.38 229.76 401.59 238.41L403.03 238.56L401.59 238.42C400.99 245 399.79 251.6 397.89 258.47C395.6 266.79 392.26 274.8 388.16 282.35C387.01 284.62 385.59 286.73 384.29 288.92C383.63 290 382.87 291.02 382.16 292.08C381.42 293.11 380.76 294.2 379.96 295.19C378.38 297.18 376.85 299.2 375.23 301.16C373.52 303.03 371.83 304.93 370.1 306.79C364.6 312.35 358.51 317.41 352.08 321.75C343.16 327.69 333.35 332.47 323.05 335.97C317.87 337.61 312.62 339.13 307.24 340.06C304.57 340.64 301.85 340.91 299.16 341.31C296.44 341.53 293.73 341.83 291.01 341.85C285.57 342.04 280.11 341.64 274.69 340.92C269.27 340.21 263.88 339.15 258.6 337.81L256.82 337.34L255.94 337.09L255.5 336.96L255.28 336.9C255.28 336.9 255.09 336.84 254.98 336.82C254.85 336.79 254.73 336.77 254.6 336.76L255.07 336.83C251.06 335.58 247.11 334.12 243.25 332.44C240.77 331.36 238.33 330.19 235.94 328.93C234.75 328.3 233.56 327.66 232.39 326.99L231.52 326.48L231.24 326.32C231.24 326.32 230.77 326.05 230.76 326.04C227.89 324.37 224.29 321.97 220.98 319.52C217.66 317.08 214.64 314.61 212.62 313.13C210.97 311.93 209.76 311.22 209.38 311.33C209.13 311.4 209.24 311.83 209.85 312.69L209.86 312.72Z" fill="#32E6E2"/>
<path d="M287.75 114.69V138.72C287.75 139.41 290.26 139.41 290.26 138.72V114.69C290.26 114 287.75 114 287.75 114.69Z" fill="#32E6E2"/>
<path d="M175.29 230.47H199.32C200.01 230.47 200.01 227.96 199.32 227.96H175.29C174.6 227.96 174.6 230.47 175.29 230.47Z" fill="#32E6E2"/>
<path d="M377.91 230.47H401.94C402.63 230.47 402.63 227.96 401.94 227.96H377.91C377.22 227.96 377.22 230.47 377.91 230.47Z" fill="#32E6E2"/>
<path d="M356.73 168.56L357.2 168.21L375.47 154.51L375.95 154.15C376.5 153.74 375 151.73 374.44 152.14L373.96 152.5L355.69 166.2L355.22 166.55C354.67 166.96 356.17 168.97 356.73 168.56Z" fill="#32E6E2"/>
<path d="M201.009 154.32L201.479 154.67L219.749 168.37L220.229 168.73C220.779 169.14 222.289 167.14 221.739 166.72L221.259 166.36L202.989 152.66L202.519 152.31C201.969 151.9 200.459 153.9 201.009 154.32Z" fill="#32E6E2"/>
<path d="M9.59977 139.25H22.3598C22.7298 139.25 22.7298 136.74 22.3598 136.74H9.59977C9.22977 136.74 9.22977 139.25 9.59977 139.25Z" fill="#32E6E2"/>
<path d="M105.58 39.7301V52.4901C105.58 52.8601 108.09 52.8601 108.09 52.4901V39.7301C108.09 39.3601 105.58 39.3601 105.58 39.7301Z" fill="#32E6E2"/>
<path d="M105.58 222.94V235.7C105.58 236.07 108.09 236.07 108.09 235.7V222.94C108.09 222.57 105.58 222.57 105.58 222.94Z" fill="#32E6E2"/>
<path d="M145.11 47.4001L145.03 47.5701L142.06 54.3301L141.98 54.5101C141.89 54.7101 144.19 55.7201 144.28 55.5201L144.36 55.3401L147.33 48.5801L147.41 48.4101C147.5 48.2101 145.2 47.2001 145.11 47.4001Z" fill="#32E6E2"/>
<path d="M69.3894 219.72L69.3094 219.89L66.3394 226.65L66.2594 226.83C66.1694 227.03 68.4694 228.04 68.5594 227.84L68.6394 227.66L71.6094 220.9L71.6894 220.73C71.7794 220.53 69.4794 219.52 69.3894 219.72Z" fill="#32E6E2"/>
<path d="M197.689 100.89L197.509 100.96L190.629 103.64L190.449 103.71C190.239 103.79 191.149 106.13 191.359 106.05L191.539 105.98L198.419 103.3L198.599 103.23C198.809 103.15 197.899 100.81 197.689 100.89Z" fill="#32E6E2"/>
<path d="M22.3093 169.19L22.1293 169.26L15.2493 171.94L15.0693 172.01C14.8593 172.09 15.7693 174.43 15.9793 174.35L16.1593 174.28L23.0393 171.6L23.2193 171.53C23.4293 171.45 22.5193 169.11 22.3093 169.19Z" fill="#32E6E2"/>
<path d="M24.7398 100.17L24.5698 100.09L17.8098 97.1202L17.6298 97.0402C17.4298 96.9502 16.4198 99.2502 16.6198 99.3402L16.7998 99.4202L23.5598 102.39L23.7298 102.47C23.9298 102.56 24.9398 100.26 24.7398 100.17Z" fill="#32E6E2"/>
<path d="M143.569 228.47L143.499 228.29L140.819 221.41L140.749 221.23C140.669 221.02 138.329 221.93 138.409 222.14L138.479 222.32L141.159 229.2L141.229 229.38C141.309 229.59 143.649 228.68 143.569 228.47Z" fill="#32E6E2"/>
<path d="M75.2694 53.0901L75.1994 52.9101L72.5194 46.0301L72.4494 45.8501C72.3694 45.6401 70.0294 46.5501 70.1094 46.7601L70.1794 46.9401L72.8594 53.8201L72.9294 54.0001C73.0094 54.2101 75.3494 53.3001 75.2694 53.0901Z" fill="#32E6E2"/>
<path d="M175.23 67.5502L175.01 67.7702L166.43 76.3502L166.2 76.5802C165.94 76.8402 167.72 78.6102 167.97 78.3502L168.2 78.1202L176.78 69.5402L177 69.3202C177.26 69.0602 175.48 67.2902 175.23 67.5502Z" fill="#32E6E2"/>
<path d="M45.6897 197.09L45.4697 197.31L36.8896 205.89L36.6597 206.12C36.3997 206.38 38.1796 208.15 38.4296 207.89L38.6597 207.66L47.2397 199.08L47.4597 198.86C47.7197 198.6 45.9397 196.83 45.6897 197.09Z" fill="#32E6E2"/>
<path d="M47.4598 76.57L47.2398 76.35L38.6598 67.77L38.4298 67.54C38.1698 67.28 36.3998 69.06 36.6598 69.31L36.8898 69.54L45.4698 78.12L45.6898 78.34C45.9498 78.6 47.7198 76.82 47.4598 76.57Z" fill="#32E6E2"/>
<path d="M295.23 247.74C297.17 247.39 300.34 244.65 302.59 243.14C306.38 240.61 310.19 238.08 313.98 235.56C317.49 233.23 320.86 230.7 324.2 228.23C327.54 225.74 330.88 223.25 334.24 220.75C337.26 218.49 340.3 216.24 343.41 214.09C347.3 211.41 351.25 209.04 355.21 206.57C356.95 205.48 358.65 204.36 360.33 203.2C361.17 202.62 362 202.03 362.83 201.42L364.06 200.49L364.89 199.83C365.28 199.52 365.63 199.2 365.99 198.88C366.38 198.57 366.62 198.25 366.94 197.93C367.11 197.77 367.19 197.62 367.29 197.47C367.38 197.32 367.5 197.17 367.57 197.03C367.8 196.47 367.91 196.03 367.74 195.51L367.6 195.05C367.5 194.9 367.4 194.79 367.31 194.69C367.13 194.49 366.92 194.37 366.68 194.27C366.22 194.06 365.56 194 364.73 194.1C363.91 194.21 362.97 194.45 362.07 194.74C361.53 194.9 361.4 194.96 361.12 195.05L360.38 195.31C359.4 195.67 358.44 196.04 357.48 196.43C349.69 199.62 342 202.75 334.33 206.02C326.57 209.35 319.38 213.05 311.86 216.72C304.28 220.45 296.46 223.42 288.66 226.67C284.75 228.29 280.95 230.06 277.18 231.83C275.29 232.72 273.41 233.62 271.53 234.56C270.59 235.03 269.65 235.52 268.7 236.03C268.23 236.29 267.76 236.55 267.27 236.86C267.18 236.92 266.97 237.04 266.78 237.2C266.6 237.35 266.38 237.48 266.24 237.66C265.9 237.97 265.7 238.42 265.66 238.88C265.63 239.27 265.66 239.68 265.81 240.07C265.88 240.26 265.94 240.47 266.02 240.64C266.09 240.78 266.14 240.9 266.21 241.01C266.46 241.48 266.72 241.88 266.98 242.28C267.5 243.07 268.04 243.81 268.57 244.56C269.62 246.04 270.67 247.51 271.72 248.97L274.82 253.4C275.34 254.14 275.86 254.88 276.43 255.64C276.58 255.83 276.72 256.02 276.88 256.21C277.05 256.44 277.39 256.76 277.67 257C277.98 257.22 278.31 257.41 278.68 257.47C279.06 257.53 279.41 257.41 279.77 257.26L281.43 256.43L282.83 255.69C283.77 255.2 284.68 254.68 285.61 254.18C292.88 250.11 299.93 245.53 306.21 240.48C307.02 239.83 307.68 239.19 308.02 238.68C308.31 238.22 308.5 237.75 307.88 237.61C307.21 237.52 306.24 238.1 305.47 238.49C304.53 239.07 303.57 239.65 302.56 240.27C301.86 240.69 301.16 241.13 300.48 241.58L295.14 245.09C290.11 248.36 285.07 251.66 279.85 254.48C279.61 254.6 279.38 254.72 279.15 254.84C279.07 254.9 278.95 254.92 278.88 254.84C278.84 254.81 278.81 254.77 278.77 254.74L278.66 254.61L278.49 254.4C278.03 253.82 277.56 253.18 277.11 252.54C276.2 251.24 275.3 249.94 274.39 248.65C272.61 246.04 270.71 243.43 269.07 240.87C268.69 240.29 268.26 239.41 268.33 239.47C268.32 239.4 268.35 239.32 268.42 239.28L269.03 238.92C270.35 238.2 271.77 237.52 273.18 236.85L281.73 232.86C293.06 227.48 304.77 222.8 316.39 217.39C322.44 214.72 328.48 212 334.46 209.19C335.92 208.5 337.45 207.81 338.93 207.18C340.68 206.42 354.42 200.15 358.73 198.65C359.98 198.19 361.26 197.74 362.4 197.39C362.69 197.33 362.97 197.16 363.4 197.23C363.54 197.34 363.4 197.48 363.34 197.58C363.25 197.69 363.15 197.79 363.03 197.9L362.84 198.07L362.27 198.52C361.79 198.88 361.31 199.24 360.81 199.61C358.38 201.36 355.9 203.05 353.42 204.75C350.48 206.75 347.55 208.75 344.61 210.75C342.36 212.3 340.09 213.86 337.85 215.41C331.64 219.63 325.37 224.02 319.14 228.5C316.05 230.75 312.93 232.86 309.74 234.98C308.15 236.04 306.57 237.1 304.99 238.16L302.63 239.77L301.46 240.59L301.17 240.79L301.08 240.86L300.92 240.98C299.03 242.36 295.89 244.5 294.87 246.05C294.45 246.68 294.3 247.24 294.46 247.55C294.57 247.75 294.82 247.85 295.22 247.78L295.23 247.74Z" fill="#32E6E2"/>
<path d="M59.6301 130.3L59.3001 130.89C58.2201 132.79 57.0601 134.66 55.8301 136.47C55.2101 137.37 54.5801 138.28 53.9401 139.11C53.6201 139.52 53.2901 139.92 52.9801 140.19C52.8301 140.33 52.6801 140.43 52.5901 140.48C52.4901 140.52 52.4801 140.53 52.4201 140.52C52.3601 140.52 52.3301 140.51 52.2401 140.45C52.1501 140.39 52.0201 140.28 51.8901 140.13C51.6201 139.82 51.3401 139.38 51.0601 138.93L49.3801 136.08L45.9401 130.33L45.5801 129.72C45.1601 129.03 43.0301 130.35 43.4501 131.04L43.8101 131.64L47.2201 137.33L48.9301 140.23C49.2401 140.73 49.5501 141.23 50.0101 141.77C50.2401 142.03 50.5201 142.31 50.8901 142.56C51.2601 142.81 51.7701 143 52.2701 143.02C52.7601 143.06 53.3101 142.93 53.7101 142.73C54.1201 142.53 54.4201 142.29 54.6801 142.05C55.2001 141.58 55.5701 141.11 55.9401 140.65C56.6601 139.72 57.2901 138.81 57.9301 137.87C59.2001 136 60.3901 134.09 61.5001 132.13L61.8401 131.52C62.2401 130.8 60.0301 129.61 59.6501 130.3H59.6301Z" fill="#32E6E2"/>
<path d="M119.44 145.38C118.89 145.52 118.54 145.89 118.22 146.35C117.9 146.81 117.59 147.36 117.27 147.74C116.74 148.38 116.15 149 115.54 149.59C115.23 149.91 114.93 150.11 114.64 150.34C114.38 150.6 113.99 150.73 113.67 150.93C111.07 152.17 107.83 152.44 104.72 152.07C103.3 151.94 101.9 151.55 100.59 150.99C98.9599 150.24 97.6599 149.01 96.6199 147.72C94.8099 145.5 93.3699 143.06 92.9199 140.08C92.6899 138.59 92.8299 137.02 93.1899 135.58C93.6299 134.19 94.2299 132.79 95.0699 131.6C96.7199 129.19 98.7799 127.04 101.58 125.55C102.28 125.17 103.02 124.88 103.78 124.67C104.48 124.47 105.26 124.43 106.05 124.44C107.64 124.47 109.23 124.74 110.74 125.16C112.26 125.57 113.7 126.1 115.01 126.76C115.34 126.92 115.65 127.11 115.96 127.29C116.24 127.49 116.52 127.69 116.82 127.88C117.08 128.12 117.35 128.36 117.62 128.59C117.88 128.84 118.11 129.13 118.36 129.4C120.51 131.96 121.24 135.59 120.69 138.95C120.12 141.94 119.01 144.63 117.83 147.49C117.53 148.22 117.57 149.11 118.38 149.36C118.76 149.48 119.1 149.12 119.37 148.89C119.66 148.53 120 148.19 120.28 147.79C120.49 147.51 120.68 147.22 120.86 146.93C121.11 146.55 121.29 146.14 121.48 145.73C121.66 145.32 121.88 144.92 122.03 144.49C122.96 142.12 123.38 139.56 123.3 137.02C123.2 134.3 122.61 131.57 121.25 129.14C120.59 127.92 119.7 126.81 118.65 125.83C117.53 124.88 116.32 124.17 115.05 123.65C112.51 122.6 109.85 122.12 107.17 122.03C105.83 122.01 104.44 122.01 102.96 122.44C101.62 122.81 100.35 123.34 99.1299 124C96.6099 125.25 94.3299 127.18 92.8499 129.64C92.4799 130.23 92.1499 130.88 91.8099 131.49C91.7199 131.68 91.4899 132.19 91.2199 132.89C91.0199 133.61 90.6799 134.51 90.5499 135.51C90.2299 137.45 90.3399 139.54 90.4599 140.51C90.5799 141.66 90.7299 142.72 91.2299 143.93C91.6099 144.85 92.0499 145.74 92.6099 146.65C92.7799 146.92 92.9399 147.21 93.1299 147.47L93.7199 148.24C94.0899 148.78 94.5599 149.22 95.0199 149.68C95.5399 150.25 96.1799 150.66 96.7499 151.16C97.3899 151.56 97.9999 152.02 98.6699 152.35C99.6899 152.91 100.77 153.33 101.85 153.72C104.84 154.76 108.13 155.18 111.43 154.62C113.07 154.31 114.74 153.77 116.24 152.72C116.59 152.44 117 152.14 117.29 151.86C117.58 151.58 117.86 151.3 118.14 151.01C118.41 150.72 118.68 150.42 118.94 150.11L119.32 149.64L119.41 149.52L119.44 149.48L119.49 149.41C119.77 148.99 120.17 148.47 120.47 147.9C120.77 147.33 120.94 146.7 120.83 146.23C120.73 145.84 120.47 145.54 120.15 145.42C119.94 145.33 119.7 145.32 119.47 145.37L119.44 145.38Z" fill="#32E6E2"/>
<path d="M102.91 139.02C102.87 138.84 102.84 138.63 102.82 138.41C102.8 138.17 102.79 137.81 102.82 137.64C102.82 137.49 102.89 137.3 102.98 137.1C103.16 136.7 103.49 136.28 103.87 135.92C104.63 135.19 105.66 134.65 106.64 134.51C108.52 134.14 110.55 135.85 110.74 137.8C110.79 138.28 110.74 138.79 110.62 139.29C110.55 139.54 110.47 139.79 110.36 140.03C110.31 140.15 110.25 140.27 110.19 140.38C110.14 140.49 110.05 140.63 110.03 140.66C109.46 141.4 108.41 142.22 107.52 142.53C107.28 142.63 107.07 142.65 106.89 142.68C106.68 142.68 106.47 142.68 106.24 142.64C105.79 142.55 105.32 142.36 104.9 142.08C104.06 141.51 103.38 140.64 103.07 139.65C102.98 139.45 102.96 139.22 102.9 139.01C102.81 138.32 100.27 138.28 100.43 139.47C100.51 139.79 100.56 140.12 100.69 140.44C101.18 141.95 102.19 143.27 103.51 144.17C104.18 144.62 104.94 144.95 105.77 145.11C106.19 145.19 106.63 145.21 107.08 145.19C107.55 145.14 107.98 145.05 108.36 144.9C109.14 144.62 109.8 144.22 110.4 143.77C111.01 143.3 111.53 142.84 112.07 142.13C112.24 141.89 112.31 141.75 112.41 141.57C112.5 141.4 112.59 141.22 112.66 141.04C112.82 140.68 112.94 140.31 113.04 139.93C113.24 139.16 113.31 138.34 113.22 137.53C113.13 136.71 112.86 135.91 112.46 135.21C112.04 134.45 111.52 133.89 110.9 133.36C109.69 132.32 107.88 131.75 106.26 132.04C104.65 132.29 103.25 133.05 102.12 134.11C101.56 134.65 101.05 135.27 100.68 136.06C100.5 136.45 100.35 136.89 100.3 137.4C100.25 137.89 100.27 138.18 100.29 138.6C100.31 138.92 100.36 139.25 100.43 139.6C100.58 140.25 101.36 140.31 101.89 139.99C102.43 139.66 102.94 139.32 102.88 139.04L102.91 139.02Z" fill="#32E6E2"/>
<path d="M232.43 66.5501C233.92 67.2701 236.61 67.7801 239.56 68.0401C242.51 68.3001 245.69 68.2701 248.18 68.1901C252.34 68.0601 256.51 67.6001 260.6 66.7301C262.65 66.3001 264.67 65.7801 266.67 65.1501C268.67 64.5201 270.59 63.8001 272.51 63.2101C286.73 59.0501 301.85 57.8401 316.63 58.7401C319.97 59.0201 323.29 59.5601 326.58 60.2701C329.88 60.9801 333.16 61.8701 336.51 62.6101C340.68 63.5301 344.89 64.2901 349.21 64.2501C351.37 64.2301 353.52 63.9101 355.57 63.6101C357.62 63.3001 359.63 63.0801 361.66 63.0201C368.8 62.8901 375.94 64.0201 383.03 65.3601C384.81 65.6901 386.6 66.0501 388.42 66.3501C390.24 66.6601 392.11 66.9301 394.11 66.9201C394.6 66.9401 395.13 66.8601 395.63 66.8201C396.14 66.7601 396.68 66.6201 397.2 66.5101C398.23 66.1501 399.31 65.6601 400.1 64.8401C401.8 63.3201 402.53 61.1101 402.74 59.1201C402.97 57.0601 402.74 55.0701 402.48 53.1901C402.2 51.2001 401.61 49.2601 400.74 47.4601C399.01 43.8401 396.26 40.8501 393.07 38.5501C389.9 36.2301 386.1 34.6801 382.22 34.0501C380.27 33.7201 378.3 33.6001 376.31 33.7001C374.32 33.8301 372.32 34.1801 370.42 34.7901C368.51 35.3801 366.66 36.3501 365.17 36.8601C364.41 37.1001 363.93 37.1501 363.5 36.9501C363.27 36.8601 363.03 36.7001 362.84 36.5301C362.66 36.3601 362.5 36.1501 362.37 35.8701C362.1 35.3201 361.94 34.5201 361.82 33.6401C361.7 32.7601 361.6 31.8201 361.45 30.8501C361.16 28.9201 360.58 26.9101 359.58 25.1201C357.59 21.5101 354.17 18.9701 350.53 17.5701C348.71 16.8501 346.82 16.3801 344.9 16.0801C343 15.7801 341.03 15.6601 339.08 15.8001C335.16 16.0601 331.23 17.0701 327.85 19.2101C326.17 20.2701 324.66 21.6201 323.43 23.1701C322.81 23.9401 322.26 24.7601 321.73 25.5201L321.34 26.0701C321.27 26.1601 321.21 26.2401 321.15 26.3201C321.1 26.3801 321.08 26.4101 321.04 26.4501C320.9 26.6001 320.7 26.7201 320.49 26.6901C320.28 26.6601 320.14 26.4801 320.04 26.3101L319.97 26.1701C319.93 26.1001 319.9 25.9901 319.86 25.8901C319.79 25.7001 319.72 25.5001 319.66 25.2901C319.41 24.4401 319.22 23.5301 319 22.6001C318.58 20.7501 318.07 18.8601 317.33 17.0401C315.89 13.3701 313.41 10.0801 310.36 7.58009C307.31 5.03009 303.69 3.25008 300.07 1.99008C296.4 0.690084 292.5 -0.0299157 288.54 0.0300843C286.56 0.0800843 284.58 0.370084 282.64 0.850084C281.69 1.17008 280.71 1.40008 279.81 1.84008C279.35 2.04008 278.89 2.23009 278.43 2.44009L277.12 3.17008C273.64 5.17008 270.76 8.04009 268.56 11.3601C266.13 15.0601 264.57 19.4301 264.57 23.8701C264.52 26.0601 264.91 28.2701 265.03 30.1701C265.07 31.1401 264.96 31.8501 264.54 32.2001C264.32 32.4101 264.1 32.5501 263.79 32.5801C263.49 32.6401 263.09 32.6101 262.64 32.5301C260.82 32.1601 258.73 31.3801 256.64 30.9701C254.54 30.5101 252.35 30.2801 250.23 30.2101C245.92 30.0501 241.45 30.7501 237.38 32.6001C233.82 34.2101 230.57 36.6001 228.03 39.6501C227.39 40.4101 226.8 41.2101 226.27 42.0501C225.72 42.8801 225.26 43.6801 224.78 44.5401C223.85 46.2401 223.04 48.0501 222.48 49.9701C221.93 51.8901 221.65 53.9501 221.88 56.0301C222.09 58.1101 222.9 60.1301 224.11 61.8001C226.61 65.1501 230.54 66.8501 234.28 67.2401C236.22 67.4501 237.96 67.2101 238.95 66.8701C239.95 66.5001 240.22 66.1301 239.46 65.8101C238.75 65.5501 236.75 65.5701 235.38 65.3101C233.54 65.0601 231.71 64.5301 230.05 63.5701C228.89 62.9101 227.83 62.0901 226.96 61.1101C225.85 59.8301 225.08 58.3001 224.76 56.6401C224.43 54.9801 224.58 53.2101 225 51.4901C225.58 49.0401 226.73 46.6901 228.08 44.4301C229.38 42.1801 231.02 40.2101 232.97 38.5201C234.92 36.8501 237.14 35.4701 239.52 34.4801C241.89 33.5001 244.43 32.9101 247.01 32.7101C249.18 32.5301 251.44 32.6201 253.61 32.8701C255.8 33.1201 257.9 33.6601 260.09 34.3101C261.2 34.6001 262.31 35.0201 263.86 34.9601C264.65 34.9101 265.5 34.5501 266.11 34.0001C266.74 33.4801 267.18 32.6301 267.31 31.9001C267.59 30.4201 267.37 29.2501 267.28 28.1201C267.16 26.9901 267.05 25.9101 267.03 24.8301C266.86 20.5401 268.32 16.3701 270.74 12.8101C273.17 9.28008 276.48 6.28009 280.37 4.62009C284.23 2.86009 288.64 2.55009 292.89 3.12009C295.02 3.42009 297.13 3.94008 299.19 4.64008C301.25 5.36008 303.28 6.19009 305.13 7.25009C308.86 9.36009 312.1 12.3401 314.08 16.0601C315.09 17.9101 315.79 19.9301 316.34 22.0601L317.16 25.3701C317.32 25.9501 317.49 26.5501 317.81 27.2401C318.06 27.8001 318.4 28.1901 318.79 28.5601C319 28.7101 319.23 28.8301 319.46 28.9601C319.7 29.0501 319.95 29.1201 320.2 29.2001C320.76 29.2301 321.33 29.1401 321.83 28.8701C322.08 28.7301 322.32 28.5601 322.53 28.3401C322.64 28.2401 322.75 28.1401 322.85 28.0301L323.09 27.7401C323.55 27.1501 323.88 26.6301 324.22 26.1401C324.89 25.1401 325.57 24.2601 326.35 23.4401C327.91 21.8401 329.84 20.6001 331.97 19.7501C334.1 18.9101 336.41 18.4301 338.75 18.2701C341.09 18.0901 343.43 18.3201 345.75 18.8301C348.49 19.4501 351.11 20.5401 353.29 22.1401C354.35 22.9801 355.32 23.9101 356.1 24.9901C356.88 26.0701 357.48 27.2501 357.89 28.5201C358.3 29.8001 358.51 31.1501 358.68 32.6101C358.89 34.0501 358.9 35.6701 359.82 37.4601C360.29 38.3701 361.14 39.1001 362.03 39.5501C362.94 40.0301 364.14 40.1401 365.07 39.9401C366.01 39.7601 366.75 39.4201 367.47 39.1201L369.5 38.2201C372.03 37.1001 374.83 36.4701 377.57 36.4701C378.38 36.4701 380.63 36.4401 383.56 37.1001C385.02 37.4301 386.63 37.9401 388.26 38.7101C389.87 39.4701 391.52 40.5201 393.04 41.7601C394.56 43.0001 395.94 44.4501 397.05 46.0301C398.16 47.6101 398.98 49.3201 399.48 51.0001C399.59 51.4201 399.73 51.8301 399.81 52.2501C399.89 52.6701 399.96 53.0701 400.03 53.4701C400.15 54.3201 400.25 55.1101 400.3 55.8401C400.41 57.3001 400.33 58.5301 400.16 59.4301C399.76 61.5601 398.59 63.3101 396.72 63.8601C395.79 64.1501 394.72 64.2901 393.54 64.2201C392.37 64.1901 391.12 64.0301 389.8 63.8301C385.77 63.1901 381.64 62.2701 377.18 61.5901C371.79 60.7501 366.32 60.1401 360.76 60.5101C357.47 60.6901 354.26 61.4801 351.24 61.8201C348.2 62.1901 345.12 61.9601 342.03 61.4901C337.26 60.8001 332.54 59.4401 327.76 58.2801C321.15 56.6501 314.17 55.7501 307.25 55.8601C305.52 55.8601 303.78 55.8201 302.05 55.8601C300.32 55.9101 298.58 55.9901 296.85 56.1201C293.38 56.3501 289.92 56.7301 286.47 57.2401C283.02 57.7501 279.59 58.4001 276.19 59.2201C274.49 59.6301 272.79 60.1001 271.12 60.6401L266.24 62.2801C263.06 63.3001 259.79 64.0701 256.5 64.5901C254.85 64.8601 253.2 65.0501 251.54 65.1901C250.71 65.2601 249.88 65.3201 249.05 65.3601L248.43 65.3901H248.23L247.89 65.4201C243.78 65.6901 237.22 65.1001 234.1 65.1801C232.82 65.2301 231.93 65.4501 231.76 65.7701C231.65 65.9801 231.84 66.2401 232.45 66.5301L232.43 66.5501Z" fill="#32E6E2"/>
<path d="M253.53 40.69L252.96 40.6C249.26 40.08 245.39 40.64 242 42.27C238.6 43.89 235.76 46.52 233.75 49.64L233.44 50.14C233.09 50.74 235.3 51.93 235.59 51.43L235.86 50.99C237.64 48.24 240.14 45.92 243.08 44.53C246.02 43.12 249.37 42.63 252.61 43.08L253.11 43.16C253.68 43.26 254.2 40.81 253.52 40.68L253.53 40.69Z" fill="#32E6E2"/>
<path d="M79.45 327.52C80.43 328 82.1 328.22 83.92 328.39C85.74 328.56 87.73 328.65 89.28 328.78C91.89 328.99 94.54 329.13 97.22 329.02C99.9 328.91 102.61 328.5 105.22 327.69C107.62 326.98 109.99 325.81 111.91 323.97C113.86 322.17 115.07 319.44 115.1 316.79C115.18 314.16 114.44 311.63 113.28 309.39C112.12 307.15 110.51 305.15 108.57 303.57C106.81 302.14 104.75 301.03 102.52 300.49C100.29 299.94 97.93 299.99 95.73 300.53C92.97 301.19 90.49 302.47 88.17 303.83C87.01 304.51 85.88 305.23 84.77 305.86C84.22 306.17 83.66 306.46 83.17 306.63L83.01 306.68C83.01 306.68 82.97 306.68 82.96 306.68C82.93 306.68 82.9 306.68 82.87 306.68C82.81 306.67 82.76 306.64 82.73 306.59C82.7 306.55 82.7 306.5 82.7 306.46C82.7 306.44 82.7 306.42 82.71 306.4V306.37L82.72 306.36V306.28C82.81 305.72 82.89 305.16 82.97 304.6C83.13 303.39 83.19 302.12 83.12 300.88C82.99 298.39 82.4 295.96 81.47 293.69C80.51 291.43 79.31 289.24 77.48 287.41C75.7 285.57 73.48 284.24 71.15 283.37C66.36 281.65 61.34 281.44 56.48 281.89C51.57 282.41 46.77 283.75 42.39 286.26C40.19 287.55 38.11 289.17 36.59 291.39C36.22 291.95 35.84 292.5 35.58 293.14C35.44 293.45 35.28 293.75 35.17 294.07L34.88 295.06C34.51 296.38 34.47 297.77 34.6 299.06C34.73 300.35 35.03 301.58 35.34 302.72L35.56 303.55L35.66 303.95L35.69 304.03C35.72 304.14 35.77 304.31 35.68 304.43C35.59 304.56 35.42 304.52 35.28 304.47C35.24 304.46 35.21 304.44 35.17 304.42C35.13 304.4 35.12 304.4 34.96 304.3L34.24 303.82C33.25 303.15 32.18 302.48 31.01 301.95C29.85 301.41 28.54 301.04 27.32 300.86C26.09 300.65 24.85 300.53 23.6 300.52C21.1 300.47 18.58 300.89 16.22 301.76C13.86 302.66 11.68 303.92 9.81003 305.75C8.03003 307.55 6.56003 309.6 5.44003 311.9C4.34003 314.19 3.59003 316.82 3.97003 319.61L4.18003 320.64C4.28003 320.99 4.42003 321.36 4.56003 321.7C4.89003 322.37 5.30003 322.99 5.77003 323.52C6.72003 324.58 7.83003 325.35 8.96003 325.99C11.24 327.23 13.63 327.97 16.02 328.53C18.42 329.09 20.84 329.44 23.28 329.68C28.71 330.2 34.04 330.29 39.37 330.1C44.71 329.83 49.92 329.43 55.28 329.23C59.99 329.04 64.7 328.85 69.38 328.66C74.06 328.49 78.69 328.25 83.2 328.26C83.78 328.27 84.33 328.26 84.82 328.23C85.3 328.21 85.73 328.18 86.06 328.11C86.73 327.96 87.05 327.67 86.65 327.19C86.28 326.74 84.89 326.42 83.94 326.27C83.29 326.18 82.65 326.11 81.99 326.05C81.34 325.99 80.67 325.91 80 325.87C79.06 325.81 78.1 325.74 77.16 325.75C74.7 325.71 72.26 325.77 69.81 325.84C62.92 326.07 56.06 326.58 49.22 327.07C45.54 327.31 41.86 327.67 38.26 327.76C34.64 327.86 31.02 327.76 27.43 327.48C23.84 327.19 20.27 326.71 16.84 325.88C15.13 325.46 13.44 324.94 11.88 324.26C10.34 323.57 8.85003 322.71 7.88003 321.6C7.40003 321.04 7.07003 320.46 6.89003 319.8C6.83003 319.43 6.71003 319.08 6.71003 318.69L6.67003 318.12L6.69003 317.54C6.76003 315.98 7.27003 314.37 7.99003 312.85C8.71003 311.33 9.63003 309.87 10.72 308.57C11.8 307.24 12.98 306.2 14.45 305.32C15.87 304.44 17.44 303.8 19.06 303.39C20.69 303 22.38 302.84 24.08 302.9C25.76 302.99 27.56 303.24 29.02 303.77C30.55 304.35 31.89 305.28 33.47 306.4L33.62 306.51L33.9 306.68L34.47 307.03C34.86 307.2 35.26 307.4 35.65 307.44C35.85 307.5 36.03 307.48 36.22 307.47C36.41 307.48 36.59 307.41 36.77 307.36C36.95 307.32 37.13 307.22 37.31 307.15C37.48 307.06 37.6 306.9 37.75 306.77C38.34 306.27 38.54 305.47 38.5 304.6C38.49 304.38 38.5 304.17 38.46 303.94C38.44 303.75 38.37 303.42 38.36 303.32L38.2 302.58C37.75 300.72 37.38 299.05 37.49 297.42C37.6 294.2 39.98 291.41 42.86 289.41C44.26 288.41 45.9 287.54 47.54 286.91C48.02 286.7 49.35 286.18 51.2 285.62C53.05 285.08 55.44 284.54 57.95 284.34C60.49 284.11 63.12 284.14 65.38 284.46C67.65 284.76 69.52 285.36 70.64 285.85C73.34 287 75.39 288.62 77.2 291.27C78.55 293.33 79.59 295.71 80.11 298.35C80.43 299.95 80.55 301.57 80.45 303.18C80.41 303.99 80.29 304.78 80.18 305.68C80.14 306.02 80.04 306.91 80.26 307.58C80.46 308.27 81 308.81 81.67 309.06C82.06 309.22 82.49 309.25 82.92 309.21C83.13 309.17 83.35 309.14 83.56 309.08L84.08 308.9C84.65 308.67 85.13 308.4 85.6 308.13C86.52 307.58 87.37 307.01 88.21 306.46C89.89 305.36 91.55 304.33 93.3 303.56C95.97 302.35 98.88 301.81 101.57 302.5C105.29 303.38 108.52 306.21 110.47 309.66C111.45 311.39 112.12 313.29 112.3 315.2C112.49 317.13 112.17 318.95 111.17 320.45C110.19 321.97 108.62 323.16 106.84 324.01C105.07 324.86 103.04 325.4 101.03 325.76C99 326.11 96.92 326.23 94.82 326.23C93.77 326.23 92.71 326.2 91.65 326.15L90.06 326.06L89.66 326.04H89.53L89.31 326.03C86.69 325.91 82.39 325.42 80.35 325.98C79.52 326.2 78.98 326.54 78.9 326.88C78.85 327.11 79 327.34 79.4 327.54L79.45 327.52Z" fill="#32E6E2"/>
<path d="M141.36 275.15C140.89 274.95 140.41 274.75 139.92 274.57C137.58 273.68 135.14 273.04 132.66 272.67C131.46 272.49 130.21 272.31 128.9 272.28C127.59 272.25 126.26 272.39 124.98 272.7C122.44 273.33 120.04 274.53 118.07 276.29C117.09 277.16 116.21 278.14 115.47 279.17L114.83 280.07V280.03L114.79 279.67C114.77 279.5 114.74 279.33 114.71 279.16C114.48 277.8 113.93 276.44 113.09 275.32C112.26 274.19 111.19 273.3 110.11 272.59C109.01 271.89 108.01 271.29 106.82 270.71C105.65 270.15 104.4 269.7 103.08 269.45C101.76 269.2 100.38 269.21 99.0498 269.41C96.3798 269.82 93.9798 271.08 91.9598 272.66C91.5298 273 91.1098 273.35 90.7098 273.72C90.0198 274.37 90.1698 275.16 90.6398 275.57C91.1098 275.99 91.8298 276.11 92.4198 275.57C92.7698 275.24 93.1298 274.94 93.5098 274.64C95.2798 273.25 97.3198 272.22 99.4398 271.89C101.56 271.53 103.72 271.98 105.73 272.97C106.71 273.45 107.79 274.09 108.73 274.69C109.67 275.3 110.47 276 111.08 276.82C111.69 277.64 112.07 278.58 112.25 279.6C112.27 279.73 112.3 279.85 112.31 279.99C112.33 280.14 112.34 280.19 112.36 280.54C112.41 281.06 112.39 281.76 112.48 282.29C112.57 282.82 112.74 283.21 112.96 283.43C113.07 283.55 113.19 283.64 113.36 283.72C113.52 283.81 113.73 283.94 113.96 283.91C114.16 283.93 114.34 283.93 114.5 283.93C114.67 283.87 114.83 283.86 115 283.73L115.26 283.58C115.35 283.51 115.44 283.41 115.53 283.33L115.8 283.07L116.06 282.72C116.24 282.49 116.41 282.25 116.57 282.01L117 281.38L117.5 280.67C118.17 279.74 118.92 278.91 119.74 278.18C121.37 276.71 123.43 275.68 125.58 275.15C127.73 274.6 129.91 274.78 132.3 275.16C134.6 275.5 136.86 276.1 139.04 276.92C139.49 277.09 139.94 277.27 140.38 277.46C141.9 278.14 143.04 275.9 141.36 275.15Z" fill="#32E6E2"/>
<path d="M400.579 16.3602L399.849 16.0701C398.659 15.6201 397.419 15.2901 396.149 15.1001C394.999 14.9101 393.499 14.7701 392.129 15.1301C390.779 15.4701 389.519 16.1002 388.459 17.0402C388.199 17.2702 387.949 17.5201 387.719 17.7701L387.609 17.9002L387.529 17.7001C387.379 17.3301 387.179 16.9901 386.949 16.6701C386.479 16.0301 385.889 15.5501 385.319 15.1701C384.739 14.8001 384.259 14.5201 383.629 14.2001C382.419 13.6001 380.889 13.2602 379.429 13.5102C377.979 13.7402 376.699 14.4101 375.649 15.2401C375.419 15.4201 375.209 15.6002 374.999 15.8002C374.259 16.5302 376.229 18.1201 376.709 17.6401C376.869 17.4901 377.029 17.3502 377.199 17.2202C377.999 16.5902 378.919 16.1301 379.819 16.0001C380.719 15.8501 381.619 16.0302 382.539 16.4802C382.969 16.6902 383.519 17.0101 383.939 17.2801C384.359 17.5601 384.689 17.8501 384.929 18.1701C385.049 18.3301 385.149 18.5002 385.219 18.6902C385.219 18.7102 385.369 19.0301 385.389 19.3601C385.449 19.6501 385.429 20.0501 385.479 20.3801C385.539 21.0901 385.809 21.4001 385.979 21.5601C386.069 21.6401 386.159 21.6802 386.259 21.7302C386.349 21.7502 386.489 21.9201 386.729 21.8901C387.099 21.9101 387.259 21.9602 387.589 21.8002C387.889 21.6702 388.269 21.3201 388.619 20.7701C388.959 20.2701 389.369 19.7101 389.609 19.4601C389.779 19.2701 389.949 19.0902 390.139 18.9402C390.859 18.2902 391.779 17.8301 392.739 17.5901C393.689 17.3501 394.619 17.4201 395.799 17.6101C396.879 17.7701 397.949 18.0502 398.979 18.4402L399.609 18.6902C400.319 19.0102 401.459 16.7701 400.589 16.3801L400.579 16.3602Z" fill="#32E6E2"/>
<path d="M437.71 35.0901C437.4 34.9601 437.08 34.8301 436.76 34.7101C435.21 34.1201 433.6 33.7001 431.96 33.4601C430.43 33.2101 428.55 33.0301 426.81 33.4901C425.09 33.9201 423.48 34.7201 422.14 35.9201C421.8 36.2101 421.5 36.5301 421.2 36.8501C421.05 37.0101 420.92 37.1801 420.78 37.3501L420.59 37.5901C420.63 37.7501 420.46 37.0601 420.28 36.6401C420.09 36.1901 419.84 35.7601 419.56 35.3601C418.98 34.5701 418.24 33.9601 417.51 33.4801C416.76 33.0101 416.13 32.6301 415.32 32.2301C414.53 31.8501 413.68 31.5501 412.78 31.3801C411.88 31.2101 410.92 31.2101 410.02 31.3501C408.19 31.6301 406.57 32.4801 405.21 33.5501C404.92 33.7801 404.64 34.0101 404.37 34.2601C403.43 35.1901 405.4 36.7701 406.08 36.1001C406.3 35.9001 406.52 35.7101 406.76 35.5201C407.86 34.6501 409.12 34.0201 410.4 33.8301C411.68 33.6201 412.97 33.8801 414.23 34.4901C414.83 34.7801 415.55 35.2001 416.12 35.5701C416.7 35.9501 417.18 36.3701 417.53 36.8501C417.71 37.0901 417.85 37.3401 417.96 37.6101C418.07 37.9201 418.14 37.9701 418.26 38.9401C418.3 39.3401 418.29 39.8201 418.36 40.1801C418.39 40.3701 418.42 40.5501 418.48 40.6601C418.53 40.8101 418.59 40.9001 418.65 40.9901C418.77 41.1601 418.88 41.2901 419.03 41.3501L419.27 41.4801C419.36 41.5501 419.51 41.6001 419.65 41.5901C419.91 41.5901 420.06 41.6401 420.25 41.5901C420.34 41.5701 420.43 41.5401 420.54 41.4901C420.64 41.4601 420.74 41.3901 420.85 41.3001C421.3 40.9901 421.76 40.2401 422.21 39.6001C422.33 39.4401 422.43 39.2801 422.56 39.1201L422.73 38.9001C422.84 38.7701 422.95 38.6301 423.07 38.5001C423.3 38.2401 423.54 38.0001 423.8 37.7701C424.8 36.8701 426.08 36.2301 427.4 35.9001C428.72 35.5601 430.04 35.6701 431.59 35.9101C433.05 36.1301 434.49 36.5001 435.87 37.0301C436.16 37.1401 436.44 37.2501 436.72 37.3701C437.68 37.8001 438.82 35.5601 437.7 35.0601L437.71 35.0901Z" fill="#32E6E2"/>
</svg>
